<svg xmlns="http://www.w3.org/2000/svg" viewBox="0 0 200 200" width="500" height="500">
	<style>
		tspan { white-space:pre }
		.shp0 { fill: #33364d } 
		.shp1 { fill: #b1b1b1 } 
		.shp2 { fill: #419a1c } 
	</style>
	<g id="Background">
		<path id="Path 0" class="shp0" d="M44.11 51.27C42.25 52.5 40.11 54.74 39.36 56.25C38.61 57.76 38 60.8 38 63C38 65.2 38.45 67.22 39 67.5C39.55 67.78 40.79 67.36 41.75 66.57C42.71 65.79 43.58 63.87 43.68 62.32C43.77 60.77 44.74 58.66 45.83 57.63C46.92 56.59 49.09 55.78 50.65 55.82C52.22 55.86 54.3 56.7 55.28 57.69C56.26 58.69 57.05 60.74 57.03 62.25C57.01 63.76 56.1 65.9 55 67C53.9 68.1 51.76 68.99 50.25 68.97C48.68 68.96 46.54 69.93 45.27 71.22C43.05 73.49 43.04 73.66 43 109C42.98 136.36 43.26 144.79 44.23 145.77C45.15 146.68 49.82 147.03 61.05 147.02C72.16 147 76.95 146.64 77.82 145.75C78.49 145.06 79.03 142.36 79.02 139.75C79 136.01 78.57 134.79 77 134C75.9 133.45 71.17 133 66.5 133L58 133L58 73C62.25 67.9 63 65.8 63 63C63 60.8 62.39 57.76 61.64 56.25C60.89 54.74 58.64 52.49 56.64 51.25C54.64 50.01 51.76 49.01 50.25 49.02C48.74 49.03 45.97 50.04 44.11 51.27Z" />
		<path id="Path 1" fill-rule="evenodd" class="shp1" d="M145 52.14C151.06 51.97 152.83 52.28 154.22 53.72C155.76 55.31 156.02 59.4 156.64 91.5C157.18 119.43 157.64 127.78 158.67 128.75C159.4 129.44 160 130.45 160 131C160 131.55 158.88 132.22 157.5 132.5C156.13 132.78 153.47 132.44 151.61 131.75C148.69 130.67 147.86 130.74 145.61 132.25C143.68 133.55 143.01 134.84 143.03 137.25C143.04 139.04 143.83 141.3 144.78 142.28C145.72 143.26 147.74 144.05 149.25 144.03C150.93 144.01 152.68 143.1 153.75 141.68C154.71 140.41 156.96 138.84 158.75 138.18C161.8 137.07 162 137.14 162.03 139.25C162.04 140.49 161.02 143.07 159.75 145C158.24 147.29 155.97 149.02 153.22 150C149.47 151.33 148.53 151.33 144.78 150C142.03 149.02 139.76 147.29 138.25 145C136.73 142.69 135.95 140.05 135.97 137.25C135.99 133.96 136.67 132.26 138.96 129.75C141.89 126.53 141.92 126.37 141.96 114.5C141.98 107.9 141.66 94.74 140.5 67.99L131.75 68C124.33 68 122.7 67.7 121 66C119.7 64.7 119.01 62.68 119.02 60.25C119.02 58.19 119.46 55.83 119.98 55C120.64 53.95 123.42 53.32 129.21 52.92C133.77 52.6 140.88 52.25 145 52.14ZM51.82 56.73C52.74 57.03 54.07 58 54.77 58.89C55.46 59.78 56.04 61.4 56.05 62.5C56.06 63.6 55.26 65.23 54.28 66.12C53.3 67 51.38 68.01 50 68.34C48.63 68.68 44.04 72.68 32.11 85.5L35.08 88.5C36.71 90.15 38.03 91.84 38.02 92.25C38.01 92.66 37.29 93.68 36.43 94.5C35.56 95.33 34.55 96.02 34.18 96.03C33.81 96.05 31.36 94.25 28.75 92.03C26.01 89.71 24 87.15 24 86C24 84.8 28.07 79.92 34.21 73.78C39.82 68.16 44.69 62.43 45.03 61.03C45.36 59.64 46.65 57.98 47.89 57.34C49.13 56.7 50.89 56.42 51.82 56.73ZM48.76 64.29C49.75 65.24 50.36 65.18 51.62 64C52.5 63.17 52.95 61.94 52.61 61.25C52.28 60.56 51.31 60 50.48 60C49.64 60 48.62 60.69 48.23 61.54C47.82 62.39 48.06 63.61 48.76 64.29Z" />
		<path id="Path 2" fill-rule="evenodd" class="shp2" d="M83 83C85.93 83 89.27 83.73 91.07 84.75C92.76 85.71 94.96 87.85 95.96 89.5C96.96 91.15 98.09 93.85 98.46 95.5C98.83 97.15 98.68 100.3 98.14 102.5C97.52 104.99 95.79 107.73 93.57 109.75C91.48 111.65 88.44 113.26 86.25 113.62C84.19 113.96 80.81 113.74 78.75 113.12C76.69 112.5 73.88 110.65 72.5 109C71.13 107.35 69.55 104.2 69 102C68.36 99.45 68.34 96.64 68.93 94.25C69.52 91.91 71.39 89.09 73.94 86.75C77.51 83.46 78.62 83 83 83ZM77.25 94.5C76.56 95.88 75.98 97.79 75.97 98.75C75.95 99.71 76.85 101.74 77.97 103.25C79.51 105.34 80.84 106 83.5 106C86.16 106 87.49 105.34 89.03 103.25C90.15 101.74 91.07 99.38 91.08 98C91.08 96.63 90.28 94.51 89.29 93.29C88.31 92.08 86.38 90.86 85 90.59C83.63 90.32 81.6 90.52 80.5 91.05C79.4 91.57 77.94 93.13 77.25 94.5ZM104.42 82.98C105.56 82.97 107.07 83.54 107.77 84.23C108.66 85.13 109.03 89.37 109.02 98.75C109 111.8 108.96 112.02 106.55 113.25C104.52 114.29 103.83 114.24 102.51 113C101.21 111.78 100.89 108.94 100.79 97.92C100.72 90.45 101.04 84.03 101.5 83.67C101.96 83.3 103.27 82.99 104.42 82.98ZM123.67 83C133 83 134.1 83.19 135 85C135.67 86.33 135.67 87.67 135 89C134.13 90.73 133 91 126.5 91C120.5 91 119 91.3 119 92.5C119 93.55 120.06 94 122.5 94C124.42 94 127.13 94.45 128.5 95C130.43 95.77 130.94 96.63 130.75 98.75C130.51 101.37 130.23 101.51 124.75 101.75C119.75 101.97 119 102.26 119 104C119 105.82 119.67 106 126.5 106C133 106 134.13 106.27 135 108C135.67 109.33 135.67 110.67 135 112C134.11 113.79 133 114 124.5 114C119.28 114 114.33 113.78 113.5 113.5C112.27 113.09 111.97 110.42 111.83 98.67C111.74 90.78 112.04 84.03 112.5 83.67C112.96 83.3 117.98 83 123.67 83Z" />
		<path id="Path 3" fill-rule="evenodd" class="shp0" d="M178.11 116C179.56 116 180.45 117.47 181.91 122.25C183.36 126.99 183.54 128.77 182.66 129.63C182.02 130.25 175.65 132.67 168.5 135.01C161.35 137.34 154.6 140.09 153.5 141.11C152.4 142.12 150.38 142.97 149 143C147.63 143.02 145.93 142.46 145.23 141.77C144.54 141.07 143.97 139.26 143.98 137.75C143.99 136.01 144.82 134.47 146.25 133.55C147.62 132.67 149.68 132.33 151.5 132.68C153.47 133.06 157.92 132.14 164.5 130C170 128.21 174.88 126.47 175.35 126.13C175.82 125.78 175.71 123.92 175.11 122C174.33 119.47 174.33 118.15 175.13 117.25C175.73 116.56 177.07 116 178.11 116ZM147.46 139.5C148.8 141.39 148.98 141.4 150.69 139.8C151.83 138.73 152.22 137.52 151.75 136.55C151.34 135.7 150.38 135 149.61 135C148.85 135 147.73 135.56 147.13 136.25C146.33 137.16 146.42 138.04 147.46 139.5Z" />
	</g>
</svg>